<svg width="37" height="39" viewBox="0 0 37 39" fill="none" xmlns="http://www.w3.org/2000/svg">
<path d="M35.454 15.1152L35.4542 15.1149C35.7002 14.6425 35.6814 14.0655 35.4077 13.6144L35.454 15.1152ZM35.454 15.1152L31.0539 23.5824C31.0539 23.5825 31.0539 23.5825 31.0539 23.5825C30.5972 24.4608 29.8828 25.1969 29.0078 25.7262L27.474 26.6541L29.2667 26.654L34.403 26.6537C34.4396 26.6537 34.5219 26.6772 34.5869 26.8227C34.6506 26.9654 34.6536 27.1489 34.5749 27.3001L34.5747 27.3005L30.1744 35.7685C30.1744 35.7685 30.1744 35.7686 30.1744 35.7687C29.3881 37.2802 27.6732 38.2785 25.7511 38.2778H25.751L18.3332 38.2765H18.333L10.915 38.2792H10.9149C8.99302 38.2802 7.27783 37.2817 6.49164 35.7703L2.09083 27.3031L2.09073 27.3029C2.01206 27.1517 2.01506 26.9682 2.07882 26.8254C2.14387 26.6797 2.22626 26.6561 2.26295 26.6561L7.39931 26.6555L9.1919 26.6553L7.658 25.7277C6.78327 25.1987 6.06906 24.4629 5.61229 23.5849C5.61226 23.5849 5.61223 23.5848 5.6122 23.5848L1.21123 15.1171L1.21112 15.1169C0.965602 14.6451 0.984265 14.0683 1.25796 13.6168C1.49098 13.2328 1.86972 13.0218 2.26217 13.0218H5.63133H6.6741L6.02119 12.2087C5.70738 11.8179 5.4621 11.3825 5.30067 10.9156C5.30066 10.9155 5.30064 10.9155 5.30063 10.9155L2.18471 1.89582L2.18443 1.89501C2.12866 1.73447 2.15823 1.55357 2.24222 1.42146C2.32785 1.28676 2.41287 1.27527 2.44902 1.28051C2.44907 1.28051 2.44912 1.28052 2.44916 1.28053L18.3469 3.62774L34.2434 5.97469C34.2435 5.97469 34.2435 5.9747 34.2435 5.9747C34.2806 5.98025 34.3586 6.01612 34.4015 6.16932C34.4437 6.31975 34.4198 6.50158 34.3197 6.6396L34.3194 6.6401L30.2815 12.2266L29.7083 13.0197M35.454 15.1152L29.7083 13.0197M29.7083 13.0197L30.6868 13.0195M29.7083 13.0197L30.6868 13.0195M30.6868 13.0195L34.4028 13.0191C34.4029 13.0191 34.4029 13.0191 34.4029 13.0191M30.6868 13.0195L34.4029 13.0191M34.4029 13.0191C34.403 13.0191 34.403 13.0191 34.4031 13.0191M34.4029 13.0191H34.4031M34.4031 13.0191C34.7959 13.0193 35.1745 13.2303 35.4077 13.6144L34.4031 13.0191ZM25.7511 25.6437H25.7512H25.753C27.6255 25.6437 29.3753 24.6809 30.1821 23.1296L30.1822 23.1294L34.5456 14.7323L34.9253 14.0016L34.1019 14.0017L2.56357 14.0041L1.74028 14.0042L2.11995 14.7347L6.48403 23.1316L6.48411 23.1317C7.29056 24.682 9.04016 25.6447 10.9118 25.6447H10.9147H10.9149L18.3326 25.642H18.3329L25.7511 25.6437Z" fill="#053827" stroke="#084B30"/>
</svg>
