<svg width="31" height="38" viewBox="0 0 31 38" fill="none" xmlns="http://www.w3.org/2000/svg">
<path d="M12.0134 9.1696C12.3054 10.031 13.012 10.6512 13.9037 10.8287C14.0719 10.8624 14.2401 10.8788 14.4062 10.8788C15.1207 10.8788 15.7984 10.5751 16.2845 10.0203L20.3516 5.38125C20.951 4.69737 21.1346 3.77482 20.8425 2.9137C20.5505 2.05227 19.8437 1.43208 18.9523 1.25455L12.9035 0.0498907C12.0119 -0.127933 11.1218 0.174675 10.5225 0.858276C9.9231 1.54188 9.73956 2.4644 10.0317 3.32581L12.0134 9.1696ZM12.1188 2.25949C12.166 2.20559 12.2607 2.12518 12.4056 2.12518C12.4318 2.12518 12.4595 2.12807 12.489 2.13383L18.5378 3.33849C18.7303 3.37683 18.8046 3.5166 18.8316 3.59614C18.8587 3.67626 18.8848 3.83218 18.7553 3.98002L14.6883 8.61907C14.5586 8.76667 14.4007 8.76151 14.3181 8.74508C14.2354 8.72835 14.0874 8.67299 14.0243 8.48686L12.0425 2.64308C11.9794 2.4569 12.0633 2.32289 12.1188 2.25949ZM27.6069 8.45143C27.2401 8.11564 26.7607 7.94273 26.2676 7.96494C25.7704 7.98714 25.3116 8.20095 24.9756 8.56835L22.8162 10.9302C22.4795 11.2974 22.3061 11.7737 22.3282 12.2717C22.35 12.7694 22.5649 13.2288 22.9317 13.5637C23.4763 14.0623 23.5139 14.9119 23.0153 15.4568C22.5168 16.0021 21.6674 16.0399 21.1225 15.5407C20.7558 15.205 20.2804 15.0329 19.7834 15.054C19.2861 15.0761 18.8275 15.2902 18.4919 15.6571L16.3293 18.0218C15.6387 18.7791 15.6911 19.9593 16.4468 20.6536C17.7002 21.8015 19.2398 22.5197 20.8887 22.7454L14.2813 22.7462L3.91468 22.7486C3.21089 22.7486 2.7854 23.7021 3.16413 24.4293L5.04169 33.763C5.53738 36.2274 7.70128 38.0002 10.2136 37.9999L18.3509 37.9987C20.8629 37.9984 23.0262 36.2255 23.5215 33.7614L25.3984 24.4256C25.7773 23.6984 25.3517 22.745 24.6478 22.745H23.1487C25.0611 22.4862 26.8065 21.5773 28.1243 20.1363C28.1342 20.1256 28.1438 20.1147 28.1529 20.1037C29.6242 18.4786 30.3807 16.3791 30.2839 14.1868C30.1864 11.9798 29.2358 9.94283 27.6069 8.45143ZM26.5577 18.7007C26.5491 18.71 26.5408 18.7195 26.5326 18.729C25.4281 19.9228 23.9257 20.6193 22.2982 20.6913C20.7484 20.7599 19.2563 20.2525 18.0766 19.2584L19.8883 17.2777C21.2979 18.3866 23.3521 18.2359 24.582 16.8912C25.8113 15.5471 25.7797 13.4876 24.5516 12.1801L26.3624 10.1993C27.457 11.2887 28.0938 12.7279 28.1624 14.2805C28.2349 15.9203 27.6651 17.4901 26.5577 18.7007ZM10.2934 14.6073C10.2934 11.8386 8.04223 9.58596 5.27529 9.58596C2.50844 9.58596 0.257324 11.8386 0.257324 14.6073C0.257324 17.376 2.50844 19.6285 5.27529 19.6285C8.04223 19.6285 10.2934 17.376 10.2934 14.6073ZM2.38076 14.6073C2.38076 13.0101 3.67922 11.7108 5.27529 11.7108C6.87146 11.7108 8.16982 13.0101 8.16982 14.6073C8.16982 16.2041 6.87146 17.5036 5.27529 17.5036C3.67922 17.5036 2.38076 16.2041 2.38076 14.6073Z" fill="#053827"/>
</svg>
