<svg width="39" height="39" viewBox="0 0 39 39" fill="none" xmlns="http://www.w3.org/2000/svg">
<path d="M19.4858 6.07135C18.9177 6.07135 18.4572 6.53195 18.4572 7.10005V18.7741L13.3019 24.7356C12.9302 25.1653 12.9774 25.8148 13.4071 26.1862C13.6015 26.3545 13.8411 26.4368 14.0794 26.4368C14.3677 26.4368 14.6544 26.3162 14.8578 26.081L20.2638 19.8299C20.4253 19.643 20.5144 19.4041 20.5144 19.1572V7.10005C20.5144 6.53195 20.0538 6.07135 19.4858 6.07135ZM19.2571 -0.00012207C8.63882 -0.00012207 0 8.63885 0 19.2571C0 29.8754 8.63882 38.5143 19.2571 38.5143C29.8755 38.5143 38.5144 29.8754 38.5144 19.2571C38.5144 8.63885 29.8755 -0.00012207 19.2571 -0.00012207ZM19.2571 36.4571C9.77302 36.4571 2.0572 28.7412 2.0572 19.2571C2.0572 9.77305 9.77302 2.05708 19.2571 2.05708C28.7413 2.05708 36.4572 9.77305 36.4572 19.2571C36.4572 28.7412 28.7413 36.4571 19.2571 36.4571Z" fill="#053827"/>
</svg>
