<svg width="40" height="40" viewBox="0 0 40 40" fill="none" xmlns="http://www.w3.org/2000/svg">
<rect width="40" height="40" fill="white" fill-opacity="0.12"/>
<path d="M13 27H14.425L24.2 17.225L22.775 15.8L13 25.575V27ZM11 29V24.75L24.2 11.575C24.4 11.3917 24.6208 11.25 24.8625 11.15C25.1042 11.05 25.3583 11 25.625 11C25.8917 11 26.15 11.05 26.4 11.15C26.65 11.25 26.8667 11.4 27.05 11.6L28.425 13C28.625 13.1833 28.7708 13.4 28.8625 13.65C28.9542 13.9 29 14.15 29 14.4C29 14.6667 28.9542 14.9208 28.8625 15.1625C28.7708 15.4042 28.625 15.625 28.425 15.825L15.25 29H11ZM23.475 16.525L22.775 15.8L24.2 17.225L23.475 16.525Z" fill="white"/>
</svg>
