<svg width="33" height="32" viewBox="0 0 33 32" fill="none" xmlns="http://www.w3.org/2000/svg">
<g clip-path="url(#clip0_65_969)">
<path d="M28.12 6.14667C27.439 5.46534 26.6305 4.92486 25.7405 4.55611C24.8506 4.18736 23.8967 3.99757 22.9334 3.99757C21.9701 3.99757 21.0162 4.18736 20.1262 4.55611C19.2363 4.92486 18.4277 5.46534 17.7467 6.14667L16.3334 7.56L14.92 6.14667C13.5444 4.77108 11.6787 3.99828 9.73337 3.99828C7.78799 3.99828 5.92229 4.77108 4.5467 6.14667C3.17111 7.52226 2.39832 9.38796 2.39832 11.3333C2.39832 13.2787 3.17111 15.1444 4.5467 16.52L16.3334 28.3067L28.12 16.52C28.8014 15.839 29.3418 15.0304 29.7106 14.1405C30.0793 13.2505 30.2691 12.2967 30.2691 11.3333C30.2691 10.37 30.0793 9.41614 29.7106 8.52619C29.3418 7.63625 28.8014 6.82768 28.12 6.14667Z" stroke="#1E1E1E" stroke-width="3" stroke-linecap="round" stroke-linejoin="round"/>
</g>
<defs>
<clipPath id="clip0_65_969">
<rect width="32" height="32" fill="white" transform="translate(0.333374)"/>
</clipPath>
</defs>
</svg>
