<svg width="100" height="100" viewBox="0 0 100 100" fill="none" xmlns="http://www.w3.org/2000/svg">
<g clip-path="url(#clip0_100_2)">
<path d="M67.2344 32.3404V23.617C67.2344 14.2553 59.5749 6.5957 50.2132 6.5957C40.8515 6.5957 33.1919 14.2553 33.1919 23.617V32.3404C33.1919 32.3404 48.9366 36.5957 67.2344 32.3404Z" stroke="#050505" stroke-width="1.7" stroke-miterlimit="10"/>
<path fill-rule="evenodd" clip-rule="evenodd" d="M31.6919 23.617C31.6919 13.4269 40.023 5.0957 50.2132 5.0957C60.4033 5.0957 68.7344 13.4269 68.7344 23.617V33.5316L67.5742 33.8014C58.2311 35.9742 49.5554 35.9718 43.2237 35.4307C40.0549 35.1598 37.4644 34.7533 35.6598 34.4128C34.7572 34.2425 34.0505 34.0886 33.5655 33.9762C33.323 33.92 33.1359 33.8742 33.0073 33.8418C32.943 33.8257 32.8934 33.8129 32.8588 33.8038L32.8182 33.7932L32.8065 33.79L32.8015 33.7887C32.801 33.7885 32.8005 33.7884 33.1919 32.3404L32.8015 33.7887L31.6919 33.4888V23.617ZM34.6919 31.1549C35.0974 31.2439 35.6084 31.3502 36.216 31.4648C37.9354 31.7892 40.4247 32.1805 43.4792 32.4416C49.3294 32.9416 57.221 32.9611 65.7344 31.1384V23.617C65.7344 15.0837 58.7464 8.0957 50.2132 8.0957C41.6799 8.0957 34.6919 15.0837 34.6919 23.617V31.1549Z" fill="#020202"/>
<path fill-rule="evenodd" clip-rule="evenodd" d="M31.6919 40.4282L33.3779 40.639C38.4303 41.2705 44.1125 41.6912 50.0004 41.6912C56.1046 41.6912 61.9998 41.2701 67.0484 40.639L68.7344 40.4282V49.3614C68.7344 59.5516 60.4033 67.8827 50.2132 67.8827C40.023 67.8827 31.6919 59.5516 31.6919 49.3614V40.4282ZM34.6919 43.8161V49.3614C34.6919 57.8947 41.6799 64.8827 50.2132 64.8827C58.7464 64.8827 65.7344 57.8947 65.7344 49.3614V43.8153C60.9658 44.3484 55.5695 44.6912 50.0004 44.6912C44.6213 44.6912 39.4173 44.3484 34.6919 43.8161Z" fill="#020202"/>
<path fill-rule="evenodd" clip-rule="evenodd" d="M65.734 24.8848L67.4304 25.1088C73.1337 25.8621 77.9582 27.0017 81.3989 28.4284C83.1136 29.1394 84.5674 29.955 85.6171 30.8929C86.6634 31.8279 87.4574 33.0267 87.4574 34.4682C87.4574 35.5131 87.0006 36.4223 86.3607 37.1656C85.7281 37.9005 84.861 38.5428 83.8627 39.1101C81.8654 40.2452 79.0745 41.2294 75.7557 42.0422C69.0949 43.6734 59.981 44.6916 49.9999 44.6916C40.0251 44.6916 30.912 43.7277 24.2498 42.1234C20.9306 41.324 18.1345 40.3459 16.1317 39.1968C14.2376 38.11 12.5425 36.5675 12.5425 34.4682C12.5425 33.0101 13.3674 31.8084 14.434 30.88C15.5073 29.9459 16.9933 29.1329 18.7456 28.4236C22.2629 26.9999 27.1905 25.8613 32.9986 25.1084L34.6914 24.8889V31.1551C35.0969 31.2441 35.6079 31.3504 36.2155 31.465C37.9349 31.7894 40.4242 32.1807 43.4787 32.4418C49.329 32.9418 57.2205 32.9613 65.734 31.1386V24.8848ZM33.1914 32.3406L32.8001 33.7886L31.6914 33.489V28.3179C26.7773 29.0436 22.7338 30.0458 19.8712 31.2044C18.2726 31.8515 17.1255 32.5146 16.4036 33.1429C15.675 33.7771 15.5425 34.2242 15.5425 34.4682C15.5425 34.8158 15.8686 35.5871 17.6248 36.5947C19.2723 37.54 21.7554 38.4369 24.9522 39.2067C31.3219 40.7407 40.1875 41.6916 49.9999 41.6916C59.8061 41.6916 68.6709 40.6886 75.0421 39.1283C78.2392 38.3454 80.7275 37.4413 82.3805 36.5019C83.2074 36.032 83.7582 35.5905 84.0871 35.2084C84.4088 34.8347 84.4574 34.5936 84.4574 34.4682C84.4574 34.2076 84.3205 33.7575 83.6182 33.13C82.9192 32.5054 81.8064 31.845 80.2499 31.1996C77.469 30.0466 73.5345 29.0476 68.734 28.3228V33.5318L67.5737 33.8016C58.2306 35.9744 49.5549 35.972 43.2233 35.4309C40.0544 35.16 37.4639 34.7535 35.6593 34.413C34.7568 34.2427 34.0501 34.0888 33.5651 33.9764C33.3225 33.9202 33.1354 33.8744 33.0068 33.842C32.9425 33.8259 32.8929 33.8131 32.8583 33.804L32.8177 33.7934L32.806 33.7902L32.8023 33.7892L32.8001 33.7886C32.7995 33.7885 32.8001 33.7886 33.1914 32.3406Z" fill="#020202"/>
<path fill-rule="evenodd" clip-rule="evenodd" d="M12.1172 85.5317C12.1172 71.7157 23.4359 60.6274 37.0214 60.6274H39.2497L39.6606 60.9561C42.6619 63.3572 45.9585 64.8828 50.0002 64.8828C54.066 64.8828 57.5582 63.3392 60.3006 60.9886L60.7219 60.6274H62.5534C76.3508 60.6274 87.4719 71.9335 87.0321 85.5563V89.5742C87.0321 92.5303 84.6584 94.904 81.7023 94.904H17.447C14.4909 94.904 12.1172 92.5303 12.1172 89.5742V85.5317ZM37.0214 63.6274C25.075 63.6274 15.1172 73.3903 15.1172 85.5317V89.5742C15.1172 90.8735 16.1477 91.904 17.447 91.904H81.7023C83.0015 91.904 84.0321 90.8735 84.0321 89.5742V85.5067L84.0329 85.4817C84.4295 73.5839 74.7048 63.6274 62.5534 63.6274H61.8198C58.667 66.1834 54.6546 67.8828 50.0002 67.8828C45.3065 67.8828 41.4929 66.1551 38.2055 63.6274H37.0214Z" fill="#020202"/>
<path fill-rule="evenodd" clip-rule="evenodd" d="M35.7554 62.1274V79.3615C35.7554 79.5969 35.9349 79.7764 36.1703 79.7764H64.0426C64.278 79.7764 64.4575 79.5969 64.4575 79.3615V62.1274H67.4575V79.3615C67.4575 81.2537 65.9349 82.7764 64.0426 82.7764H36.1703C34.278 82.7764 32.7554 81.2537 32.7554 79.3615V62.1274H35.7554Z" fill="#020202"/>
<path fill-rule="evenodd" clip-rule="evenodd" d="M23.3936 93.4042V65.7446H26.3936V93.4042H23.3936Z" fill="#020202"/>
<path fill-rule="evenodd" clip-rule="evenodd" d="M73.6064 93.4042V65.7446H76.6064V93.4042H73.6064Z" fill="#020202"/>
</g>
<defs>
<clipPath id="clip0_100_2">
<rect width="100" height="100" fill="white"/>
</clipPath>
</defs>
</svg>
